<?xml version="1.0" encoding="iso-8859-1"?>
<!-- Generator: Adobe Illustrator 16.0.0, SVG Export Plug-In . SVG Version: 6.00 Build 0)  -->
<!DOCTYPE svg PUBLIC "-//W3C//DTD SVG 1.1//EN" "http://www.w3.org/Graphics/SVG/1.1/DTD/svg11.dtd">
<svg version="1.1" id="Capa_1" xmlns="http://www.w3.org/2000/svg" xmlns:xlink="http://www.w3.org/1999/xlink" x="0px" y="0px"
	 width="532.699px" height="532.699px" viewBox="0 0 532.699 532.699" style="enable-background:new 0 0 532.699 532.699;"
	 xml:space="preserve">
<g>
	<g>
		<path d="M113.299,196.3c4.8,18.9,17.1,33.7,31.8,38.8c17.2,56.4,61.4,115.099,121.2,115.099S370.2,291.6,387.5,235.1
			c14.7-5,27-19.8,31.8-38.9c6.8-27.1-3.8-52.3-24.1-58.5c4.5-6.5,9.5-13.1,9.5-20.5c0-11.2-11.4-20.3-15.101-30.5
			c-3.7-10.2-0.899-24.4-7.8-33.2c-6.6-8.4-21.3-9.1-30.4-15.7c-8.6-6.3-13.399-20-23.699-24.5c-9.9-4.1-23.2,1.8-34.2-0.4
			c-10.4-2-20.5-12.9-31.7-12.9s-21.3,10.6-31.7,12.8c-11,2.1-24.3-3.8-34.2,0.4c-10.3,4.5-15.1,18.3-23.7,24.6
			c-9.1,6.6-23.6,7.4-30.4,15.7c-6.9,8.7-4,23-7.8,33.2c-3.7,10.2-15.1,19.3-15.1,30.5c0,8.6,6.7,16,11.5,23.5
			C114.899,150.1,107.399,172.4,113.299,196.3z M399.799,191.4c-3.8,15.2-13.8,24.3-21.7,25.4l-6.6,0.9l-1.8,6.4
			c-14.4,52.599-54.5,106-103.4,106c-48.9,0-89-53.3-103.4-106.1l-1.8-6.4l-6.6-0.9c-7.8-1.1-17.9-10.1-21.7-25.4
			c-2.8-11.3-1-22.6,3.7-29.2c2-2.7,4.4-4.7,7.3-5.5c0.7-0.1,1.3-0.2,2.1-0.2c0.6,0,1.1,0,1.7,0.1l9.4,0.9l1.5-9.4
			c3.7-24.6,12.4-46.3,24.9-63.4c2.1,4.9,1.3,14,6.4,17c4.7,2.9,14.3-3.1,20.4-1c5.3,2,8.4,12.9,14.6,14.2
			c5.6,1.2,13.1-7.4,19.3-6.7c5.8,0.6,11.3,10.5,17.4,10.5c6.199,0,11.6-10,17.5-10.5c6.199-0.7,13.6,8,19.3,6.7
			c6.2-1.3,9.2-12.2,14.6-14.2c6-2.2,15.7,3.8,20.4,1c5.6-3.5,3.9-14.4,7.3-18.7c1.101-1.5,2.9-2.7,4.7-3.8
			c14.7,17.9,25.1,41.4,29.1,68.9l1.5,9.4l9.4-0.9c1-0.1,1.9,0,2.7,0.1c0.3,0,0.8,0,1.1,0C398.7,159.1,403.7,175.3,399.799,191.4z"
			/>
		<path d="M267.9,235.3c-38.301,0-69.201,33.8-69.201,33.8c0,9.6,31,0,69.201,0c38.199,0,69.199,9.6,69.199,0
			C337.2,269.1,306.2,235.3,267.9,235.3z"/>
		<path d="M378.099,314.9c-12.1,20.6-26.1,38-44.6,47.5c-38.2,19.6-66.6,35.4-66.6,35.4l-0.1-0.102v-0.398l-0.5,0.1l-0.4-0.201v0.4
			l-0.1,0.1c0,0-28.4-15.899-66.6-35.399c-18.5-9.5-32.5-26.899-44.6-47.5c-56.7,23-96.1,75.899-96.1,122.101
			c0,48.6,0,95.799,0,95.799h207.4h0.8h207.5c0,0,0-47.199,0-95.799C474.2,390.801,434.599,338,378.099,314.9z"/>
	</g>
</g>
<g>
</g>
<g>
</g>
<g>
</g>
<g>
</g>
<g>
</g>
<g>
</g>
<g>
</g>
<g>
</g>
<g>
</g>
<g>
</g>
<g>
</g>
<g>
</g>
<g>
</g>
<g>
</g>
<g>
</g>
</svg>
